<svg viewBox="0 0 512 512" xmlns="http://www.w3.org/2000/svg"><path d="m482 135v60c0 8.402344-6.597656 15-15 15h-422c-8.402344 0-15-6.597656-15-15v-60c0-5.398438 3-10.5 7.5-12.898438l211-120c2.402344-1.5 5.097656-2.101562 7.5-2.101562s5.097656.601562 7.5 2.101562l211 120c4.5 2.398438 7.5 7.5 7.5 12.898438zm0 0" fill="#d3d3d8"/><path d="m482 135v60c0 8.402344-6.597656 15-15 15h-211v-210c2.402344 0 5.097656.601562 7.5 2.101562l211 120c4.5 2.398438 7.5 7.5 7.5 12.898438zm0 0" fill="#babac0"/><path d="m256 60c-24.902344 0-45 20.097656-45 45s20.097656 45 45 45 45-20.097656 45-45-20.097656-45-45-45zm0 0" fill="#ececf1"/><path d="m256 150v-90c24.902344 0 45 20.097656 45 45s-20.097656 45-45 45zm0 0" fill="#e2e2e7"/><path d="m301 255v182c0 8.402344-6.597656 15-15 15h-60c-8.402344 0-15-6.597656-15-15v-182c0-8.402344 6.597656-15 15-15h60c8.402344 0 15 6.597656 15 15zm0 0" fill="#d3d3d8"/><path d="m437 240h-61c-8.289062 0-15 6.710938-15 15v182c0 8.289062 6.710938 15 15 15h61c8.289062 0 15-6.710938 15-15v-182c0-8.289062-6.710938-15-15-15zm0 0" fill="#babac0"/><path d="m136 240h-61c-8.289062 0-15 6.710938-15 15v182c0 8.289062 6.710938 15 15 15h61c8.289062 0 15-6.710938 15-15v-182c0-8.289062-6.710938-15-15-15zm0 0" fill="#d3d3d8"/><path d="m286 452h-30v-212h30c8.402344 0 15 6.597656 15 15v182c0 8.402344-6.597656 15-15 15zm0 0" fill="#babac0"/><path d="m497 180h-482c-8.402344 0-15 6.597656-15 15v60c0 8.402344 6.597656 15 15 15h482c8.402344 0 15-6.597656 15-15v-60c0-8.402344-6.597656-15-15-15zm0 0" fill="#ececf1"/><path d="m482 437v60c0 1.199219-.300781 2.402344-.902344 3.601562h-450.195312c-.601563-1.199218-.902344-2.402343-.902344-3.601562v-60c0-8.402344 6.597656-15 15-15h422c8.402344 0 15 6.597656 15 15zm0 0" fill="#ececf1"/><path d="m482 437v60c0 1.199219-.300781 2.402344-.902344 3.601562h-225.097656v-78.601562h211c8.402344 0 15 6.597656 15 15zm0 0" fill="#e2e2e7"/><path d="m512 195v60c0 8.402344-6.597656 15-15 15h-241v-90h241c8.402344 0 15 6.597656 15 15zm0 0" fill="#e2e2e7"/><path d="m512 497c0 8.402344-6.597656 15-15 15h-482c-8.402344 0-15-6.597656-15-15s6.597656-15 15-15h482c8.402344 0 15 6.597656 15 15zm0 0" fill="#a8d32a"/><path d="m512 497c0 8.402344-6.597656 15-15 15h-241v-30h241c8.402344 0 15 6.597656 15 15zm0 0" fill="#93bf00"/></svg>