<svg viewBox="0 0 512.00102 512" xmlns="http://www.w3.org/2000/svg"><g fill="#ffd400"><path d="m512 254.96875c0 8.398438-6.597656 15-15 15-8.398438 0-14.996094-6.601562-14.996094-15 0-62.09375-26.199218-118.183594-66.992187-158.980469l-.300781-.300781c-40.792969-40.496094-97.585938-65.691406-159.679688-65.691406-8.398438 0-14.996094-6.597656-14.996094-14.996094 0-8.402344 6.597656-15 14.996094-15 70.191406 0 135.082031 28.496094 181.277344 74.691406 46.195312 46.191406 75.691406 110.085938 75.691406 180.277344zm0 0"/><path d="m452.007812 254.96875c0 8.398438-6.597656 15-15 15-8.398437 0-14.996093-6.601562-14.996093-15 0-45.59375-19.898438-87.289062-49.894531-117.285156-29.996094-29.394532-71.792969-47.695313-117.085938-47.695313-8.398438 0-14.996094-6.597656-14.996094-14.996093 0-8.402344 6.597656-15 14.996094-15 53.691406 0 103.285156 21.898437 138.382812 56.992187 35.695313 35.394531 58.59375 84.289063 58.59375 137.984375zm0 0"/><path d="m392.015625 254.96875c0 8.398438-6.597656 15-15 15-8.398437 0-14.996094-6.601562-14.996094-15 0-29.398438-13-56.09375-32.796875-74.992188-18.898437-18.597656-45.695312-29.996093-74.191406-29.996093-8.398438 0-14.996094-6.597657-14.996094-14.996094 0-8.402344 6.597656-15 14.996094-15 36.894531 0 71.191406 14.699219 95.789062 38.996094 24.894532 24.597656 41.195313 58.492187 41.195313 95.988281zm0 0"/></g><path d="m503 377.753906s-109.183594-47.394531-112.183594-48.894531c-5.699218-2.398437-12.601562-1.199219-16.800781 3.300781-7.796875 7.796875-35.394531 35.996094-43.792969 43.492188-28.796875-18.894532-68.191406-53.492188-104.488281-89.488282l-2.101563-2.097656c-35.09375-35.398437-69.089843-72.890625-88.285156-102.289062 7.796875-8.097656 35.695313-35.992188 43.492188-43.792969 4.5-4.5 5.699218-11.097656 3.300781-16.796875 0 0-47.09375-109.1875-48.59375-112.1875-3-6.898438-10.199219-10.5-17.097656-8.402344-.300781 0-85.488281 25.199219-88.789063 26.101563-22.5 5.695312-32.394531 29.394531-25.496094 51.589843 29.09375 93.890626 87.988282 185.980469 163.578126 262.46875 75.589843 76.191407 169.277343 138.785157 267.96875 169.078126 22.195312 6.898437 45.890624-3 51.589843-25.496094 1.800781-6 25.199219-85.886719 26.097657-89.1875 2.101562-6.902344-1.5-14.398438-8.398438-17.398438zm0 0" fill="#cb75f6"/><path d="m362.019531 254.96875c0-29.398438-13-56.09375-32.796875-74.992188l21.597656-20.996093c24.894532 24.597656 41.195313 58.492187 41.195313 95.988281 0 8.398438-6.597656 15-15 15-8.398437 0-14.996094-6.601562-14.996094-15zm0 0" fill="#fdbf00"/><path d="m422.011719 254.96875c0-45.59375-19.898438-87.289062-49.894531-117.285156l21.296874-20.699219c35.695313 35.394531 58.59375 84.289063 58.59375 137.984375 0 8.398438-6.597656 15-15 15-8.398437 0-14.996093-6.601562-14.996093-15zm0 0" fill="#fdbf00"/><path d="m415.011719 95.988281-.300781-.300781 21.597656-20.996094c46.195312 46.191406 75.691406 110.085938 75.691406 180.277344 0 8.398438-6.597656 15-14.996094 15-8.402344 0-15-6.601562-15-15 0-62.09375-26.199218-118.183594-66.992187-158.980469zm0 0" fill="#fdbf00"/><path d="m511.398438 395.152344c-.898438 3.300781-24.296876 83.191406-26.097657 89.1875-5.699219 22.496094-29.394531 32.398437-51.589843 25.496094-98.691407-30.292969-192.378907-92.886719-267.96875-169.078126l57.890624-56.691406 2.101563 2.097656c36.296875 35.996094 75.691406 70.59375 104.488281 89.488282 8.398438-7.496094 35.996094-35.695313 43.792969-43.492188 4.199219-4.5 11.101563-5.699218 16.800781-3.300781 2.996094 1.5 112.183594 48.894531 112.183594 48.894531 6.898438 3 10.5 10.496094 8.398438 17.398438zm0 0" fill="#b760ea"/></svg>